<?xml version="1.0" encoding="iso-8859-1"?>
<!-- Generator: Adobe Illustrator 16.0.0, SVG Export Plug-In . SVG Version: 6.00 Build 0)  -->
<!DOCTYPE svg PUBLIC "-//W3C//DTD SVG 1.1//EN" "http://www.w3.org/Graphics/SVG/1.1/DTD/svg11.dtd">
<svg version="1.1" id="Capa_1" xmlns="http://www.w3.org/2000/svg" xmlns:xlink="http://www.w3.org/1999/xlink" x="0px" y="0px"
	 width="61.916px" height="61.915px" viewBox="0 0 61.916 61.915" style="enable-background:new 0 0 61.916 61.915;"
	 xml:space="preserve">
<g>
	<path d="M54.228,38.041c0-0.133-0.047-0.25-0.068-0.376c-0.008-0.053-0.018-0.104-0.028-0.155
		c-0.058-0.236-0.146-0.451-0.267-0.654c-0.031-0.049-0.057-0.104-0.092-0.151c-0.043-0.062-0.068-0.138-0.117-0.194l-9.725-15.315
		c-0.428-0.675-1.172-1.085-1.973-1.085h-0.012l5.439-5.438c0.914-0.913,0.914-2.392,0-3.305L36.708,0.685
		C36.27,0.247,35.677,0,35.056,0c-0.619,0-1.215,0.247-1.652,0.685L14.499,19.589c-0.914,0.913-0.914,2.392,0,3.305l1.451,1.453
		L8.052,36.789c-0.014,0.02-0.018,0.042-0.029,0.062c-0.08,0.138-0.146,0.281-0.199,0.435c-0.018,0.05-0.033,0.099-0.047,0.149
		c-0.039,0.143-0.061,0.287-0.072,0.438c-0.004,0.043-0.012,0.084-0.012,0.126c-0.002,0.017-0.006,0.026-0.006,0.043v21.536
		c0,1.29,1.047,2.337,2.338,2.337h41.835c1.291,0,2.336-1.047,2.336-2.337V38.35C54.21,38.248,54.228,38.148,54.228,38.041z
		 M20.589,20.108L35.056,5.643l7.373,7.373l-7.094,7.092l-4.674,4.675l-3.832,3.833l-3.834-3.833l-3.539-3.541L20.589,20.108z
		 M19.337,27.733l5.162,5.164h-4.074c-0.43,0-0.779,0.348-0.779,0.777s0.35,0.779,0.779,0.779H41.46c0.43,0,0.779-0.35,0.779-0.779
		s-0.351-0.777-0.779-0.777h-12.3l8.111-8.113h3.404l6.934,10.922H14.277L19.337,27.733z M49.523,57.241h-37.16V40.378h37.16V57.241
		z"/>
</g>
<g>
</g>
<g>
</g>
<g>
</g>
<g>
</g>
<g>
</g>
<g>
</g>
<g>
</g>
<g>
</g>
<g>
</g>
<g>
</g>
<g>
</g>
<g>
</g>
<g>
</g>
<g>
</g>
<g>
</g>
</svg>
